<?xml version="1.0" standalone="no"?><!DOCTYPE svg PUBLIC "-//W3C//DTD SVG 1.1//EN" "http://www.w3.org/Graphics/SVG/1.1/DTD/svg11.dtd"><svg t="1612606719168" class="icon" viewBox="0 0 1024 1024" version="1.1" xmlns="http://www.w3.org/2000/svg" p-id="1859" xmlns:xlink="http://www.w3.org/1999/xlink" width="16" height="16"><defs><style type="text/css"></style></defs><path d="M656.77399999 800.639L656.774 522.59899999 368.029 522.599 368.029 800.639l288.74499999 0ZM394.331 1020.6609l231.082 0c37.8764 0 31.3608-25.5309 31.3608-25.5309l0-122.984L368.029 872.146 368.029 999.2542s-0.678536 21.4067 26.3028 21.40669999Zm90.0756-1007.50999999c-34.4771 35.2839-287.565 377.398-287.565 377.39799999s-38.9818 39.4069 19.456 39.4069l151.729 0 0 0.414226 288.746 0 0-0.055993 161.675 0c47.91119999 0 6.25133-38.00649999 6.25133-38.0065l-291.31100001-376.25c0.001204 0.000602-23.9553-28.6214-48.98109999-2.90681Zm0 0" fill="#ff8052" p-id="1860"></path></svg>